<svg width="16" height="16" viewBox="0 0 16 16" fill="none" xmlns="http://www.w3.org/2000/svg">
  <path
    d="M7.9998 7.25C7.30944 7.25 6.7498 7.80964 6.7498 8.5C6.7498 9.19036 7.30944 9.75 7.9998 9.75C8.69016 9.75 9.2498 9.19036 9.2498 8.5C9.2498 7.80964 8.69016 7.25 7.9998 7.25Z"
    fill="currentColor"
  />
  <path
    fill-rule="evenodd"
    clip-rule="evenodd"
    d="M13.9466 8.7244L13.946 8.72557L13.9443 8.72898L13.9386 8.74009C13.9339 8.74936 13.9271 8.76234 13.9184 8.77878C13.901 8.81165 13.8758 8.85839 13.8428 8.91701C13.7769 9.03418 13.6799 9.19924 13.5526 9.39626C13.2988 9.78934 12.9214 10.3147 12.4271 10.842C11.4476 11.8868 9.94955 13 7.9998 13C6.05005 13 4.55204 11.8868 3.57253 10.842C3.07822 10.3147 2.70083 9.78934 2.44697 9.39626C2.31973 9.19924 2.2227 9.03418 2.15679 8.91701C2.12381 8.85839 2.09857 8.81165 2.08118 8.77878C2.07248 8.76234 2.06574 8.74936 2.06097 8.74009L2.0553 8.72898L2.05357 8.72557L2.05259 8.72361C1.98221 8.58284 1.9826 8.41636 2.05299 8.2756C2.05299 8.2756 2.05259 8.27639 2.49977 8.49998L2.05299 8.2756L2.05357 8.27443L2.0553 8.27102L2.06097 8.25991C2.06574 8.25064 2.07248 8.23766 2.08118 8.22122C2.09857 8.18835 2.12381 8.14161 2.15679 8.08299C2.2227 7.96582 2.31973 7.80076 2.44697 7.60374C2.70083 7.21066 3.07822 6.6853 3.57253 6.15803C4.55204 5.11322 6.05005 4 7.9998 4C9.94955 4 11.4476 5.11322 12.4271 6.15803C12.9214 6.6853 13.2988 7.21066 13.5526 7.60374C13.6799 7.80076 13.7769 7.96582 13.8428 8.08299C13.8758 8.14161 13.901 8.18835 13.9184 8.22122C13.9271 8.23766 13.9339 8.25064 13.9386 8.25991L13.9443 8.27102L13.946 8.27443L13.9468 8.27604C14.0172 8.4168 14.017 8.58364 13.9466 8.7244ZM5.2498 8.5C5.2498 6.98122 6.48102 5.75 7.9998 5.75C9.51858 5.75 10.7498 6.98122 10.7498 8.5C10.7498 10.0188 9.51858 11.25 7.9998 11.25C6.48102 11.25 5.2498 10.0188 5.2498 8.5Z"
    fill="currentColor"
  />
</svg>
