<svg width="16" height="16" viewBox="0 0 16 16" fill="none" xmlns="http://www.w3.org/2000/svg">
  <!-- popsql-lollipop NavSuperscript (native 15x14), uniformly scaled and
       centered to fit the 16x16 box. -->
  <g transform="translate(0 0.533) scale(1.06667)">
    <path
      d="M15 5V3.722h-1.568l.664-.635c.315-.298.525-.564.631-.796.111-.238.166-.492.166-.762 0-.302-.08-.57-.239-.803A1.539 1.539 0 0013.99.19 2.388 2.388 0 0013.013 0c-.483 0-.895.102-1.236.307-.34.2-.6.475-.777.824l1.182.622a.767.767 0 01.286-.335.728.728 0 01.399-.12c.146 0 .257.036.332.106a.34.34 0 01.12.279.696.696 0 01-.073.3 1.445 1.445 0 01-.293.37l-1.68 1.634V5H15zM10.75 3a.75.75 0 00-.75-.75H8.43a.75.75 0 00-.646.37L5.5 6.518 3.216 2.62a.75.75 0 00-.647-.371H.999a.75.75 0 000 1.5h1.14L4.63 8l-2.49 4.25H1a.75.75 0 000 1.5h1.569a.75.75 0 00.647-.37L5.5 9.482l2.284 3.896c.134.23.38.371.647.371H10a.75.75 0 100-1.5H8.86L6.37 8l2.49-4.25H10a.75.75 0 00.75-.75z"
      fill="currentColor"
    />
  </g>
</svg>
