<svg
  width="16"
  height="16"
  viewBox="0 0 16 16"
  fill="none"
  xmlns="http://www.w3.org/2000/svg"
>
  <path
    fill-rule="evenodd"
    clip-rule="evenodd"
    d="M7.72576 1.32207C9.17493 1.11818 10.6511 1.39078 11.9319 2.0988C13.2126 2.80683 14.2286 3.91191 14.8267 5.24755C15.4248 6.5832 15.5726 8.07704 15.2479 9.504C14.9232 10.931 14.1435 12.2137 13.0264 13.159C11.9092 14.1044 10.5151 14.661 9.05404 14.7451C7.59302 14.8292 6.14424 14.4362 4.926 13.6253C3.70775 12.8144 2.78605 11.6295 2.29975 10.2492C2.16211 9.85855 2.36724 9.43027 2.75791 9.29263C3.14859 9.15499 3.57687 9.36011 3.71452 9.75079C4.09275 10.8243 4.80963 11.7459 5.75715 12.3766C6.70467 13.0073 7.8315 13.313 8.96785 13.2476C10.1042 13.1822 11.1885 12.7492 12.0574 12.014C12.9263 11.2787 13.5327 10.281 13.7853 9.17116C14.0379 8.06131 13.9229 6.89943 13.4577 5.86059C12.9925 4.82176 12.2023 3.96225 11.2062 3.41157C10.21 2.86088 9.06188 2.64886 7.93474 2.80744C6.80761 2.96602 5.76255 3.48661 4.95702 4.29079C4.95166 4.29613 4.94623 4.30139 4.94072 4.30657L3.181 5.9601L5.31862 5.91683C5.73275 5.90844 6.07526 6.23737 6.08365 6.65149C6.09203 7.06562 5.76311 7.40814 5.34898 7.41652L1.34898 7.4975C1.14748 7.50157 0.952813 7.42438 0.808865 7.28332C0.664917 7.14226 0.583801 6.94919 0.583801 6.74765V6.66867V6.66497V2.66667C0.583801 2.25246 0.919588 1.91667 1.3338 1.91667C1.74801 1.91667 2.0838 2.25246 2.0838 2.66667V4.93278L3.90553 3.22098C4.94009 2.19174 6.28045 1.52541 7.72576 1.32207ZM9.41713 4.65626C9.41713 4.24204 9.08135 3.90626 8.66713 3.90626C8.25292 3.90626 7.91713 4.24204 7.91713 4.65626V8.46876C7.91713 8.75456 8.07957 9.01553 8.33602 9.14171L10.6725 10.2914C11.0442 10.4742 11.4937 10.3212 11.6766 9.94953C11.8595 9.57787 11.7064 9.12834 11.3348 8.94547L9.41713 8.00191V4.65626Z"
    fill="currentColor"
  />
</svg>
