<svg width="16" height="16" viewBox="0 0 16 16" fill="none" xmlns="http://www.w3.org/2000/svg">
  <!-- popsql-lollipop NavQueriesPlus. -->
  <path
    fill-rule="evenodd"
    clip-rule="evenodd"
    d="M1.5267 1.27645C1.9174 0.885753 2.4473 0.66626 2.99984 0.66626H8.33317C8.53208 0.66626 8.72285 0.745277 8.8635 0.88593L12.8635 4.88593C13.0042 5.02658 13.0832 5.21735 13.0832 5.41626V8.08292C13.0832 8.49713 12.7474 8.83292 12.3332 8.83292C11.919 8.83292 11.5832 8.49713 11.5832 8.08292V6.16626H8.33325C7.91904 6.16626 7.58325 5.83048 7.58325 5.41626V2.16626H2.99984C2.84513 2.16626 2.69675 2.22772 2.58736 2.33711C2.47796 2.44651 2.4165 2.59488 2.4165 2.74959V13.4163C2.4165 13.571 2.47796 13.7193 2.58736 13.8287C2.69676 13.9381 2.84513 13.9996 2.99984 13.9996H8.33317C8.74739 13.9996 9.08317 14.3354 9.08317 14.7496C9.08317 15.1638 8.74739 15.4996 8.33317 15.4996H2.99984C2.4473 15.4996 1.9174 15.2801 1.5267 14.8894C1.136 14.4987 0.916504 13.9688 0.916504 13.4163V2.74959C0.916504 2.19706 1.136 1.66715 1.5267 1.27645ZM9.08325 3.227L10.5225 4.66626H9.08325V3.227ZM4.49988 4.68292C4.08566 4.68292 3.74988 5.01871 3.74988 5.43292C3.74988 5.84714 4.08566 6.18292 4.49988 6.18292H5.49988C5.91409 6.18292 6.24988 5.84714 6.24988 5.43292C6.24988 5.01871 5.91409 4.68292 5.49988 4.68292H4.49988ZM3.74988 8.58292C3.74988 8.1687 4.08566 7.83292 4.49988 7.83292H9.49988C9.91409 7.83292 10.2499 8.1687 10.2499 8.58292C10.2499 8.99713 9.91409 9.33292 9.49988 9.33292H4.49988C4.08566 9.33292 3.74988 8.99713 3.74988 8.58292ZM4.49988 10.8329C4.08566 10.8329 3.74988 11.1687 3.74988 11.5829C3.74988 11.9971 4.08566 12.3329 4.49988 12.3329H7.49988C7.91409 12.3329 8.24988 11.9971 8.24988 11.5829C8.24988 11.1687 7.91409 10.8329 7.49988 10.8329H4.49988Z"
    fill="currentColor"
  />
  <path
    d="M13.323 10.76V14.76"
    stroke="currentColor"
    stroke-width="1.5"
    stroke-linecap="round"
    stroke-linejoin="round"
  />
  <path
    d="M15.323 12.76H11.323"
    stroke="currentColor"
    stroke-width="1.5"
    stroke-linecap="round"
    stroke-linejoin="round"
  />
</svg>
